<svg xmlns="http://www.w3.org/2000/svg" width="300" height="400" viewBox="0 0 300 400" role="img" aria-hidden="true">
  <defs>
    <linearGradient id="bg" x1="0" y1="0" x2="0" y2="1">
      <stop offset="0" stop-color="#EBE1D0"/>
      <stop offset="1" stop-color="#D9C9AE"/>
    </linearGradient>
    <linearGradient id="at" x1="0" y1="0" x2="1" y2="1">
      <stop offset="0" stop-color="#6F573A"/>
      <stop offset="1" stop-color="#4C3A24"/>
    </linearGradient>
    <radialGradient id="vg" cx="0.5" cy="0.38" r="0.75">
      <stop offset="0" stop-color="#ffffff" stop-opacity="0.10"/>
      <stop offset="1" stop-color="#000000" stop-opacity="0.06"/>
    </radialGradient>
  </defs>
  <rect width="300" height="400" fill="url(#bg)"/>
  <rect x="12" y="20" width="9" height="64" rx="2" fill="#8A6B45" opacity="0.14"/>
  <rect x="26" y="20" width="9" height="64" rx="2" fill="#6E5A3C" opacity="0.14"/>
  <rect x="40" y="20" width="9" height="64" rx="2" fill="#9C7E52" opacity="0.14"/>
  <rect x="54" y="20" width="9" height="64" rx="2" fill="#7A6647" opacity="0.14"/>
  <rect x="68" y="20" width="9" height="64" rx="2" fill="#8A6B45" opacity="0.14"/>
  <rect x="82" y="20" width="9" height="64" rx="2" fill="#6E5A3C" opacity="0.14"/>
  <rect x="204" y="20" width="9" height="64" rx="2" fill="#9C7E52" opacity="0.14"/>
  <rect x="218" y="20" width="9" height="64" rx="2" fill="#7A6647" opacity="0.14"/>
  <rect x="232" y="20" width="9" height="64" rx="2" fill="#8A6B45" opacity="0.14"/>
  <rect x="246" y="20" width="9" height="64" rx="2" fill="#6E5A3C" opacity="0.14"/>
  <rect x="260" y="20" width="9" height="64" rx="2" fill="#9C7E52" opacity="0.14"/>
  <rect x="274" y="20" width="9" height="64" rx="2" fill="#7A6647" opacity="0.14"/>
  <rect width="300" height="400" fill="url(#vg)"/>
  <!-- shoulders / bust -->
  <path d="M52 400 C52 318 96 282 150 282 C204 282 248 318 248 400 Z" fill="url(#at)"/>
  <!-- lapel V -->
  <path d="M150 300 L120 400 L138 400 L150 330 L162 400 L180 400 Z" fill="#5E4A30" opacity="0.55"/>
  
  <!-- neck -->
  <path d="M132 252 h36 v30 c0 16 -36 16 -36 0 Z" fill="#D9B98E"/>
  <!-- head -->
  <circle cx="150" cy="206" r="54" fill="#E7CBA6"/>
  <!-- hair cap -->
  <path d="M96 206 a54 54 0 0 1 108 0 a54 26 0 0 0 -108 0 Z" fill="#33291F"/>
</svg>
